<svg width="52" height="98" viewBox="0 0 52 98" fill="none" xmlns="http://www.w3.org/2000/svg">
<path d="M5.88916 95C2.63133 95 0 91.8034 0 87.8457V35.3298C0 28.4799 4.57349 23 10.1494 23H41.8506C47.4892 23 52 28.556 52 35.3298V87.8457C52 91.8034 49.3687 95 46.1108 95H5.88916Z" fill="#1111B7"/>
<path d="M49 45H47.3503V33.9931C47.3503 30.5207 44.723 27.769 41.5459 27.769H10.5684C7.33015 27.769 4.76397 30.5862 4.76397 33.9931V45H3.11429V33.9931C3.11429 29.6034 6.47476 26 10.5684 26H41.4848C45.5784 26 48.9389 29.6034 48.9389 33.9931V45H49Z" fill="#090959"/>
<path d="M12.0307 67H39.9693C42.1779 67 44 64.8503 44 62.2447V34.7553C44 32.1496 42.1779 30 39.9693 30H12.0307C9.82209 30 8 32.1496 8 34.7553V62.2447C8 64.9155 9.82209 67 12.0307 67Z" fill="#4141E5"/>
<path d="M29.0555 56.2158C29.1401 56.3004 29.2572 56.3362 29.3744 56.3135L30.7084 56.0693H30.7149C30.7182 56.0693 30.7182 56.0693 30.7182 56.0693C30.7409 56.0791 30.7702 56.0759 30.7897 56.0563L30.793 56.0596L31.7268 55.8871L32.742 55.7015L33.7604 55.5193L34.948 55.2752C35.0651 55.2491 35.1888 55.2882 35.2734 55.3728L36.1356 56.2288L36.4968 56.5869L36.435 56.6097L35.3385 57.0328L35.2604 57.0621V57.0653L34.32 57.4299L34.2419 57.4592L33.4676 57.7619L33.3895 57.7944L32.5272 58.1297L32.4491 58.159L31.9253 58.3608C31.6813 58.4552 31.6194 58.7709 31.8017 58.9532L33.4448 60.5839L34.2712 61.4074L34.268 61.4139C34.3623 61.4952 34.4599 61.5961 34.5315 61.7036L34.8081 62.0974L34.8732 62.195L34.9903 62.3643L34.9968 62.3741L35.2636 62.3513L35.7322 62.3057L36.2039 62.2666L36.6757 62.2243L37.1443 62.1723C37.2516 62.1625 37.359 62.1983 37.4404 62.2764L38 62.8363L37.974 62.846L37.9479 62.8525L37.4762 62.9925L37.4404 63.0023L37.0141 63.1292L36.9783 63.139L36.7571 63.2073L36.6237 63.2464L36.5879 63.2561L36.1974 63.3766L36.1616 63.3863L35.7777 63.5002L35.7907 63.5165L35.9632 63.7639L36.0901 63.9755C36.1063 63.9982 36.1226 64.021 36.1421 64.0406L36.6497 64.5483C36.6822 64.5809 36.6822 64.6329 36.6757 64.6753C36.6725 64.6785 36.6757 64.6785 36.6725 64.6785C36.6302 64.6883 36.5846 64.6753 36.5521 64.6427L36.0445 64.135C36.025 64.1154 36.0022 64.0959 35.9794 64.0829L35.7679 63.9559L35.5207 63.7834L35.5044 63.7737L35.3905 64.1577L35.3808 64.1935L35.2636 64.5874L35.2539 64.6232L35.2148 64.7566L35.1465 64.978L35.1367 65.0138L35.0098 65.4402L35.0001 65.476L34.8602 65.9479L34.8536 65.974L34.8439 66L34.2842 65.4402C34.2094 65.362 34.1704 65.2514 34.1801 65.144L34.2322 64.6753L34.2745 64.2066L34.3135 63.7346L34.3558 63.2626L34.3786 62.9957L34.3688 62.9892L34.1996 62.8721L34.102 62.807L33.7051 62.5303C33.5977 62.4587 33.4968 62.3643 33.4155 62.2666L33.409 62.2699L32.5858 61.4432L30.9524 59.8027C30.7702 59.6204 30.4546 59.6823 30.3603 59.9296L30.1585 60.4537L30.126 60.5318L29.7909 61.3943L29.7583 61.4725L29.459 62.2471L29.4297 62.3252L29.0685 63.2626L29.0653 63.2594L29.036 63.3408L28.613 64.4377L28.5902 64.4995L28.2323 64.1382L27.3766 63.2789C27.292 63.1943 27.2529 63.0706 27.279 62.9534L27.5198 61.7621L27.702 60.7434L27.8874 59.7278L28.0599 58.7937L28.0566 58.7904C28.0761 58.7709 28.0794 58.7449 28.0696 58.7188C28.0696 58.7188 28.0696 58.7188 28.0696 58.7156V58.7091L28.3137 57.3746C28.3364 57.2574 28.2974 57.1402 28.2161 57.0556L27.0805 55.9131C26.3061 55.1254 25.8669 54.3215 26.0361 54.0383C26.0361 54.035 26.0361 54.035 26.0393 54.035C26.3256 53.869 27.1293 54.3052 27.9135 55.0799L29.0555 56.2158Z" fill="#1111B7"/>
<path d="M12.7614 51C11.7955 51 11 50.3296 11 49.5155V35.4366C11 34.6225 11.7955 34 12.7045 34H39.2955C40.2614 34 41 34.6704 41 35.4366V49.5155C41 50.3296 40.2045 51 39.2386 51H12.7614Z" fill="#1111B7"/>
<path d="M41 37H11.1128V39.066H41V37Z" fill="#090959"/>
<path d="M47 75H5V77H47V75Z" fill="#090959"/>
<path d="M14 46C14.5625 46 15 45.4717 15 44.7925V39.2075C15 38.5283 14.5625 38 14 38C13.4375 38 13 38.5283 13 39.2075V44.7925C13 45.4717 13.4375 46 14 46Z" fill="#B8B8F4"/>
<path d="M4 51C4.5625 51 5 50.4717 5 49.7925V44.2075C5 43.5283 4.5625 43 4 43C3.4375 43 3 43.5283 3 44.2075V49.7925C3 50.4717 3.4375 51 4 51Z" fill="#B8B8F4"/>
<path d="M9 84C9.5625 84 10 83.4717 10 82.7925V77.2075C10 76.5283 9.5625 76 9 76C8.4375 76 8 76.5283 8 77.2075V82.7925C8 83.4717 8.4375 84 9 84Z" fill="#B8B8F4"/>
<path d="M44 95H37C37 96.6569 38.3431 98 40 98H41C42.6569 98 44 96.6569 44 95Z" fill="#090959"/>
<path d="M15 95H8C8 96.6569 9.34314 98 11 98H12C13.6569 98 15 96.6569 15 95Z" fill="#090959"/>
<path d="M35 4H32V20H35V4Z" fill="#090959"/>
<path d="M20 4H17V20H20V4Z" fill="#090959"/>
<path d="M12 23H40C40 21.4 39.2121 20 38.1818 20H13.8182C12.8485 20.1 12 21.4 12 23Z" fill="#090959"/>
<path d="M17 2H35V5C28.9434 3.68293 22.9434 3.68293 17 4.92683V2Z" fill="#090959"/>
<path d="M18.44 0.767442C23.5829 -0.255814 28.6229 -0.255814 33.6114 0.767442C34.4343 0.953488 35 1.65116 35 2.39535V3C28.88 1.93023 22.8629 1.93023 17 3V2.39535C17 1.65116 17.6171 0.953488 18.44 0.767442Z" fill="#B8B8F4"/>
</svg>
