<svg xmlns="http://www.w3.org/2000/svg" fill="none" viewBox="0 0 24 24"><path fill="#0B0B77" d="M14.904 20.421H9.797v2.195c0 .382.287.668.668.668h.812V24h2.1v-.716h.81a.652.652 0 0 0 .669-.668v-2.195h.048zM12.709 0h-.716v3.626h.716V0zM23.666 12.335v-.716H20.04v.716h3.626zM3.96 12.332v-.716H.333v.716H3.96zM6.26 7.164l.507-.506-2.565-2.564-.506.506 2.565 2.564zM21.242 4.6l-.506-.505-2.565 2.564.506.506 2.565-2.564zM12.374 6.537c-3.006 0-5.44 2.72-5.44 6.06 0 1.049.382 2.337.764 3.1.286.573.668 1.05 1.097 1.48.43.572.812 1.145 1.002 1.718.048.238.287.429.573.429h3.961c.239 0 .43-.143.525-.382.191-.572.668-1.193 1.193-1.86.382-.382 1.05-1.384 1.05-1.384.048-.143 0 0 0 0a6.58 6.58 0 0 0 .764-3.054c-.048-3.388-2.482-6.107-5.488-6.107zm-2.052 3.626c-.906 1.145-1.05 3.197-1.05 3.197s-.954-2.004.287-3.722c1.288-1.765 3.627-1.288 3.627-1.288s-1.861.525-2.864 1.813z"/></svg>